<mxfile host="65bd71144e">
    <diagram id="system-architecture" name="システム構成図">
        <mxGraphModel dx="852" dy="606" grid="1" gridSize="10" guides="1" tooltips="1" connect="1" arrows="1" fold="1" page="1" pageScale="1" pageWidth="827" pageHeight="1169" background="#ffffff" math="0" shadow="0">
            <root>
                <mxCell id="0"/>
                <mxCell id="34" value="背景" parent="0"/>
                <mxCell id="48" value="Google Cloud" style="rounded=0;whiteSpace=wrap;html=1;fontColor=#000000;labelBackgroundColor=#E6E6E6;fillColor=#E6E6E6;align=left;verticalAlign=top;" vertex="1" parent="34">
                    <mxGeometry x="160" y="40" width="440" height="480" as="geometry"/>
                </mxCell>
                <mxCell id="49" value="Subnetwork" style="rounded=0;whiteSpace=wrap;html=1;fontColor=#000000;labelBackgroundColor=none;fillColor=#FFCCFF;align=left;verticalAlign=top;" vertex="1" parent="34">
                    <mxGeometry x="340" y="130" width="220" height="100" as="geometry"/>
                </mxCell>
                <mxCell id="1" value="アプリ" style="locked=1;" parent="0"/>
                <mxCell id="2" value="Google Kubernetes&#10;Engine" style="sketch=0;html=1;verticalAlign=top;labelPosition=center;verticalLabelPosition=bottom;align=center;spacingTop=-6;fontSize=11;fontStyle=1;fontColor=#999999;shape=image;aspect=fixed;imageAspect=0;image=data:image/svg+xml,PHN2ZyB4bWxucz0iaHR0cDovL3d3dy53My5vcmcvMjAwMC9zdmciIHhtbG5zOnY9Imh0dHBzOi8vdmVjdGEuaW8vbmFubyIgd2lkdGg9IjMyOS45MjU5OTcyMzE3OTM4IiBoZWlnaHQ9IjM3OC4yODQ5OTAzMTEyNzg4IiB2aWV3Qm94PSIwIDAgODcuMjkyOTk5MjY3NTc4MTIgMTAwLjA4Nzk5NzQzNjUyMzQ0Ij4mI3hhOzxzdHlsZSB0eXBlPSJ0ZXh0L2NzcyI+JiN4YTsJLnN0MHtmaWxsOiNhZWNiZmE7fSYjeGE7CS5zdDF7ZmlsbDojNjY5ZGY2O30mI3hhOwkuc3Qye2ZpbGw6IzQyODVmNDt9JiN4YTs8L3N0eWxlPiYjeGE7CTxwYXRoIGNsYXNzPSJzdDAiIGQ9Ik00My43NTEgMEwwIDI1LjQ2NXYyLjU4OCA0Ni45Mmw0My43NTIgMjUuMTE1IDQzLjU0MS0yNS4xMjFWMjUuNDczem0yLjQzOCAxMS44NTNsMzIuMTAzIDE4Ljc4MlY2OS43N0w0My43MzkgODkuNzA1IDkgNjkuNzYyVjMwLjY0MWwzMi4xOS0xOC43MzZ2MTQuMTU0TDI0LjUwMyAzNi4xNTNsMTkuMTcyIDExLjUwMiAxOC44ODYtMTEuNTU0LTE2LjM3Mi0xMC4wMjR6Ii8+JiN4YTsJPHBhdGggY2xhc3M9InN0MSIgZD0iTTIyLjAyNSA0MC40OTZsLjE2NiAxOS4xNDMtMTMuMjQ3IDcuMzN2Mi43NDJsMi42MzcgMS41MTQgMTIuNjQ4LTYuOTk5IDE2Ljk2MSAxMC42MDJWNTEuOTkzeiIvPiYjeGE7CTxwYXRoIGNsYXNzPSJzdDIiIGQ9Ik02NS4zNDQgNDAuMjZMNDYuMTg5IDUxLjk3OXYyMi44NDdsMTYuODk5LTEwLjU3NiAxMi41MzkgNi45NzQgMi42MDktMS41MDV2LTIuNzY1bC0xMi43ODQtNy4xMTJ6Ii8+JiN4YTs8L3N2Zz4=;" vertex="1" parent="1">
                    <mxGeometry x="320" y="70" width="37" height="42" as="geometry"/>
                </mxCell>
                <mxCell id="9" style="edgeStyle=none;html=1;entryX=0.005;entryY=0.63;entryDx=0;entryDy=0;entryPerimeter=0;strokeColor=#000000;fontColor=#000000;exitX=1;exitY=0.5;exitDx=0;exitDy=0;" edge="1" parent="1" source="3" target="4">
                    <mxGeometry relative="1" as="geometry">
                        <mxPoint x="250" y="171" as="sourcePoint"/>
                    </mxGeometry>
                </mxCell>
                <mxCell id="3" value="Cloud Load&#10;Balancing" style="sketch=0;html=1;verticalAlign=top;labelPosition=center;verticalLabelPosition=bottom;align=center;spacingTop=-6;fontSize=11;fontStyle=1;fontColor=#999999;shape=image;aspect=fixed;imageAspect=0;image=data:image/svg+xml,PHN2ZyB4bWxucz0iaHR0cDovL3d3dy53My5vcmcvMjAwMC9zdmciIHhtbG5zOnY9Imh0dHBzOi8vdmVjdGEuaW8vbmFubyIgd2lkdGg9IjIwIiBoZWlnaHQ9IjIwIiB2aWV3Qm94PSIwIDAgMjAgMjAiPiYjeGE7CTxzdHlsZSB0eXBlPSJ0ZXh0L2NzcyI+JiN4YTsJLnN0MHtmaWxsOiM0Mjg1ZjQ7fSYjeGE7CS5zdDF7ZmlsbDojNjY5ZGY2O30mI3hhOwkuc3Qye2ZpbGw6I2FlY2JmYTt9JiN4YTsJPC9zdHlsZT4mI3hhOwk8cGF0aCBjbGFzcz0ic3QxIiBkPSJNMTYgMTBoMnY0aC0yem0tNyAwaDJ2NEg5em0tNyAwaDJ2NEgyeiIvPiYjeGE7CTxwYXRoIGNsYXNzPSJzdDAiIGQ9Ik05IDVoMnY0SDl6Ii8+JiN4YTsJPHBhdGggY2xhc3M9InN0MSIgZD0iTTIgOWgxNnYySDJ6Ii8+JiN4YTsJPHBhdGggY2xhc3M9InN0MiIgZD0iTTQgMGgxMnY1SDR6Ii8+JiN4YTsJPHBhdGggY2xhc3M9InN0MSIgZD0iTTEwIDBoNnY1aC02eiIvPiYjeGE7CTxwYXRoIGNsYXNzPSJzdDIiIGQ9Ik0xNCAxNGg2djZoLTZ6TTAgMTRoNnY2SDB6Ii8+JiN4YTsJPHBhdGggY2xhc3M9InN0MSIgZD0iTTMgMTRoM3Y2SDN6Ii8+JiN4YTsJPHBhdGggY2xhc3M9InN0MiIgZD0iTTcgMTRoNnY2SDd6Ii8+JiN4YTsJPHBhdGggY2xhc3M9InN0MSIgZD0iTTEwIDE0aDN2NmgtM3ptNyAwaDN2NmgtM3oiLz4mI3hhOzwvc3ZnPg==;" vertex="1" parent="1">
                    <mxGeometry x="200" y="158" width="32" height="32" as="geometry"/>
                </mxCell>
                <mxCell id="8" style="edgeStyle=none;html=1;entryX=0.005;entryY=0.63;entryDx=0;entryDy=0;entryPerimeter=0;fontColor=#000000;strokeColor=#000000;exitX=0.995;exitY=0.63;exitDx=0;exitDy=0;exitPerimeter=0;" edge="1" parent="1" source="4" target="5">
                    <mxGeometry relative="1" as="geometry"/>
                </mxCell>
                <mxCell id="33" style="edgeStyle=none;html=1;strokeColor=#000000;fontColor=#000000;" edge="1" parent="1" source="4">
                    <mxGeometry relative="1" as="geometry">
                        <mxPoint x="420" y="310" as="targetPoint"/>
                    </mxGeometry>
                </mxCell>
                <mxCell id="4" value="&lt;font color=&quot;#000000&quot;&gt;Next.js&lt;/font&gt;" style="sketch=0;html=1;dashed=0;whitespace=wrap;fillColor=#2875E2;strokeColor=#ffffff;points=[[0.005,0.63,0],[0.1,0.2,0],[0.9,0.2,0],[0.5,0,0],[0.995,0.63,0],[0.72,0.99,0],[0.5,1,0],[0.28,0.99,0]];verticalLabelPosition=bottom;align=center;verticalAlign=top;shape=mxgraph.kubernetes.icon;prIcon=pod" vertex="1" parent="1">
                    <mxGeometry x="400" y="147" width="40" height="43" as="geometry"/>
                </mxCell>
                <mxCell id="5" value="&lt;font color=&quot;#000000&quot;&gt;Redis&lt;/font&gt;" style="sketch=0;html=1;dashed=0;whitespace=wrap;fillColor=#2875E2;strokeColor=#ffffff;points=[[0.005,0.63,0],[0.1,0.2,0],[0.9,0.2,0],[0.5,0,0],[0.995,0.63,0],[0.72,0.99,0],[0.5,1,0],[0.28,0.99,0]];verticalLabelPosition=bottom;align=center;verticalAlign=top;shape=mxgraph.kubernetes.icon;prIcon=pod" vertex="1" parent="1">
                    <mxGeometry x="480" y="147" width="40" height="43" as="geometry"/>
                </mxCell>
                <mxCell id="13" style="edgeStyle=none;html=1;entryX=0;entryY=0.5;entryDx=0;entryDy=0;strokeColor=#000000;fontColor=#000000;" edge="1" parent="1" source="12" target="3">
                    <mxGeometry relative="1" as="geometry"/>
                </mxCell>
                <mxCell id="12" value="User" style="sketch=0;pointerEvents=1;shadow=0;dashed=0;html=1;strokeColor=none;fillColor=#505050;labelPosition=center;verticalLabelPosition=bottom;verticalAlign=top;outlineConnect=0;align=center;shape=mxgraph.office.devices.laptop;fontColor=#000000;" vertex="1" parent="1">
                    <mxGeometry x="40" y="158" width="58" height="34" as="geometry"/>
                </mxCell>
                <mxCell id="29" value="Vertex AI" style="sketch=0;html=1;verticalAlign=top;labelPosition=center;verticalLabelPosition=bottom;align=center;spacingTop=-6;fontSize=11;fontStyle=1;fontColor=#999999;shape=image;aspect=fixed;imageAspect=0;image=data:image/svg+xml,PHN2ZyB4bWxucz0iaHR0cDovL3d3dy53My5vcmcvMjAwMC9zdmciIGlkPSJzdmc1IiB2ZXJzaW9uPSIxLjEiIHZpZXdCb3g9IjAgMCAyMzkuNzA4MjUgMjc0Ljg2MzI4IiBoZWlnaHQ9IjI3NC44NjMyOG1tIiB3aWR0aD0iMjM5LjcwODI1bW0iPiYjeGE7ICAmI3hhOyAgPGRlZnMgaWQ9ImRlZnMyIi8+JiN4YTsgIDxnIHRyYW5zZm9ybT0idHJhbnNsYXRlKC02Ni42ODYzNjEsNjAuMjU5NzY2KSIgaWQ9ImxheWVyMSI+JiN4YTsgICAgPGcgc3R5bGU9Im9wYWNpdHk6MC45OSIgaWQ9InBhdGg4NjkiLz4mI3hhOyAgICA8ZyBzdHlsZT0ib3BhY2l0eTowLjk5IiBpZD0icGF0aDg2OS0yIi8+JiN4YTsgICAgPGcgc3R5bGU9Im9wYWNpdHk6MC45OSIgaWQ9InBhdGg4NjktMyIvPiYjeGE7ICAgIDxnIHN0eWxlPSJvcGFjaXR5OjAuOTkiIGlkPSJwYXRoODY5LTEiLz4mI3hhOyAgICA8ZyBzdHlsZT0ib3BhY2l0eTowLjk5IiBpZD0icGF0aDg2OS04Ii8+JiN4YTsgICAgPGcgc3R5bGU9Im9wYWNpdHk6MC45OSIgaWQ9InBhdGg4NzEiPiYjeGE7ICAgICAgPHBhdGggaWQ9InBhdGgzMzU3IiBkPSJtIDc3LjE4Njc3NSwxMTAuODgyNTIgOTQuMjM5Njk1LDY5Ljc0NTc1IiBzdHlsZT0iY29sb3I6IzAwMDAwMDtmaWxsOiMwMDgwMDA7c3Ryb2tlLXdpZHRoOjIxO3N0cm9rZS1saW5lY2FwOnJvdW5kOy1pbmtzY2FwZS1zdHJva2U6bm9uZSIvPiYjeGE7ICAgIDwvZz4mI3hhOyAgICA8ZyBzdHlsZT0ib3BhY2l0eTowLjk5IiBpZD0icGF0aDg3MyIvPiYjeGE7ICAgIDxwYXRoIGQ9Im0gMTUzLjA4MTIsMTA5LjAzNTY4IGMgMCw2LjEyMDQ3IC00Ljk2MTYyLDExLjA4MjA5IC0xMS4wODIwOSwxMS4wODIwOSAtNi4xMjA0NywwIC0xMS4wODIwOCwtNC45NjE2MiAtMTEuMDgyMDgsLTExLjA4MjA5IDAsLTYuMTIwNDYgNC45NjE2MiwtMTEuMDgyMDgyIDExLjA4MjA4LC0xMS4wODIwODcgNi4xMjA0NywtMTBlLTcgMTEuMDgyMDksNC45NjE2MTcgMTEuMDgyMDksMTEuMDgyMDg3IHogbSAwLC05Mi41MTMzODEgYyAwLDYuMTIwNDY5IC00Ljk2MTYyLDExLjA4MjA5IC0xMS4wODIwOSwxMS4wODIwODkgLTYuMTIwNDcsLTVlLTYgLTExLjA4MjA4LC00Ljk2MTYyNCAtMTEuMDgyMDgsLTExLjA4MjA4OSAwLC02LjEyMDQ2NSA0Ljk2MTYxLC0xMS4wODIwODQ2IDExLjA4MjA4LC0xMS4wODIwODk2IDYuMTIwNDcsLTZlLTcgMTEuMDgyMDksNC45NjE2MjA2IDExLjA4MjA5LDExLjA4MjA4OTYgeiBtIDAsLTMyLjkyMTY4MyBjIDAsNi4xMjA0NjkgLTQuOTYxNjIsMTEuMDgyMDkwNSAtMTEuMDgyMDksMTEuMDgyMDg5OSAtNi4xMjA0NywtNWUtNiAtMTEuMDgyMDgsLTQuOTYxNjIzOSAtMTEuMDgyMDgsLTExLjA4MjA4OTkgMCwtNi4xMjA0NjUgNC45NjE2MSwtMTEuMDgyMDg0IDExLjA4MjA4LC0xMS4wODIwODkgNi4xMjA0NywtMTBlLTcgMTEuMDgyMDksNC45NjE2MiAxMS4wODIwOSwxMS4wODIwODkgeiBNIDEwOC43NDE4MSw3Ni43MTgwMSBjIDAsNi4xMjA0NjkgLTQuOTYxNjIsMTEuMDgyMDg5IC0xMS4wODIwODksMTEuMDgyMDg5IC02LjEyMDQ2OSwwIC0xMS4wODIwODksLTQuOTYxNjIgLTExLjA4MjA4OSwtMTEuMDgyMDg5IDAsLTYuMTIwNDY5IDQuOTYxNjIsLTExLjA4MjA4OSAxMS4wODIwODksLTExLjA4MjA4OSA2LjEyMDQ2OSwwIDExLjA4MjA4OSw0Ljk2MTYyIDExLjA4MjA4OSwxMS4wODIwODkgeiBtIDAsLTMyLjY4MDYyNiBjIDAsNi4xMjA0NjkgLTQuOTYxNjIsMTEuMDgyMDg5IC0xMS4wODIwODksMTEuMDgyMDg5IC02LjEyMDQ2OSwwIC0xMS4wODIwODksLTQuOTYxNjIgLTExLjA4MjA4OSwtMTEuMDgyMDg5IDAsLTYuMTIwNDY5IDQuOTYxNjIsLTExLjA4MjA4OSAxMS4wODIwODksLTExLjA4MjA4OSA2LjEyMDQ2OSwwIDExLjA4MjA4OSw0Ljk2MTYyIDExLjA4MjA4OSwxMS4wODIwODkgeiBtIDAsLTMyLjY3ODI0MyBjIDAsNi4xMjA0NjkgLTQuOTYxNjIsMTEuMDgyMDkgLTExLjA4MjA4OSwxMS4wODIwOSAtNi4xMjA0NjksMCAtMTEuMDgyMDksLTQuOTYxNjIxIC0xMS4wODIwODksLTExLjA4MjA5IDAsLTYuMTIwNDY4OCA0Ljk2MTYyLC0xMS4wODIwODkwNyAxMS4wODIwODksLTExLjA4MjA4OTA3IDYuMTIwNDY5LDAgMTEuMDgyMDg5LDQuOTYxNjIwMjcgMTEuMDgyMDg5LDExLjA4MjA4OTA3IHogTSAxNDIsMzcuNzc5Mjk3IGMgLTUuNzk4OTksMCAtMTAuNSw0LjcwMTAxIC0xMC41LDEwLjUgdiAyOC45OTQxNCBjIDAsNS43OTg5OSA0LjcwMTAxLDEwLjUgMTAuNSwxMC41IDUuNzk4OTksMCAxMC41LC00LjcwMTAxIDEwLjUsLTEwLjUgdiAtMjguOTk0MTQgYyAwLC01Ljc5ODk5IC00LjcwMTAxLC0xMC41IC0xMC41LC0xMC41IHogbSAtOC45ZS00LDEwLjUwMDM3NyBWIDc3LjI3MzY5MSBNIDk3LjY2MDE1NiwtNjAuMjU5NzY2IGMgLTUuNzk4OTksMCAtMTAuNSw0LjcwMTAxIC0xMC41LDEwLjUgdiAyOC45OTQxNDEgYyAwLDUuNzk4OTkgNC43MDEwMSwxMC41IDEwLjUsMTAuNSA1Ljc5ODk5NCwyZS02IDEwLjUwMDAwNCwtNC43MDEwMDkgMTAuNTAwMDA0LC0xMC41IHYgLTI4Ljk5NDE0MSBjIDAsLTUuNzk4OTkxIC00LjcwMTAxLC0xMC41MDAwMDIgLTEwLjUwMDAwNCwtMTAuNSB6IG0gLTQuMzVlLTQsMTAuNDk5NzY1IHYgMjguOTk0MDE3IE0gNzUuNjM0NzY2LDEwMC40OTgwNSBjIC0yLjc1NDE5MSwwLjQxMTQ4IC01LjIzMjExOSwxLjkwMDIxIC02Ljg4ODY3Miw0LjEzODY3IC0zLjQ0ODg3NCw0LjY2MTU3IC0yLjQ2NjAyNCwxMS4yMzYzNSAyLjE5NTMxMiwxNC42ODU1NSBsIDk0LjIzODI4NCw2OS43NDYwOSAxMi43ODYwNCwtMTYuNjY2NTkgLTk0LjUzMjEzNiwtNjkuOTU4NDEgYyAtMi4yMzg2OTksLTEuNjU3MTYgLTUuMDQ0MTAxLC0yLjM1NjkzIC03Ljc5ODgyOCwtMS45NDUzMSB6IiBzdHlsZT0iY29sb3I6IzAwMDAwMDtvcGFjaXR5OjAuOTk7ZmlsbDojYjVjYmY5O2ZpbGwtb3BhY2l0eToxO3N0cm9rZS13aWR0aDoyMTtzdHJva2UtbGluZWNhcDpyb3VuZDtzdHJva2UtbGluZWpvaW46cm91bmQ7LWlua3NjYXBlLXN0cm9rZTpub25lIiBpZD0icGF0aDE4NDAtNSIvPiYjeGE7ICAgIDxwYXRoIGQ9Im0gMTk3LjM5Mjc2LDE0MS45NzM2NiBjIDAsNi4xMjA0NyAtNC45NjE2MiwxMS4wODIwOSAtMTEuMDgyMDksMTEuMDgyMDkgLTYuMTIwNDcsMCAtMTEuMDgyMDksLTQuOTYxNjIgLTExLjA4MjA5LC0xMS4wODIwOSAwLC02LjEyMDQ3IDQuOTYxNjIsLTExLjA4MjA5IDExLjA4MjA5LC0xMS4wODIwOSA2LjEyMDQ3LDAgMTEuMDgyMDksNC45NjE2MiAxMS4wODIwOSwxMS4wODIwOSB6IG0gMCwtOTIuNzI1NTg2IGMgMCw2LjEyMDQ2OSAtNC45NjE2MiwxMS4wODIwOSAtMTEuMDgyMDksMTEuMDgyMDg5IC02LjEyMDQ3LDFlLTYgLTExLjA4MjA5LC00Ljk2MTYyIC0xMS4wODIwOSwtMTEuMDgyMDg5IDAsLTYuMTIwNDcgNC45NjE2MiwtMTEuMDgyMDkxIDExLjA4MjA5LC0xMS4wODIwOSA2LjEyMDQ3LC0xZS02IDExLjA4MjA5LDQuOTYxNjIgMTEuMDgyMDksMTEuMDgyMDkgeiBtIDAsLTMyLjg1NDQ1OCBjIDAsNi4xMjA0NjkgLTQuOTYxNjIsMTEuMDgyMDkgLTExLjA4MjA5LDExLjA4MjA4OSAtNi4xMjA0NywxMGUtNyAtMTEuMDgyMDksLTQuOTYxNjIgLTExLjA4MjA5LC0xMS4wODIwODkgMCwtNi4xMjA0NjkgNC45NjE2MiwtMTEuMDgyMDkwMyAxMS4wODIwOSwtMTEuMDgyMDg5NyA2LjEyMDQ3LC02ZS03IDExLjA4MjA5LDQuOTYxNjIwNyAxMS4wODIwOSwxMS4wODIwODk3IHogbSAxMDAuMDI5MTEsODQuMDA2Nzc0IGMgLTIuNzU1MTcsLTAuNDA1MDA0IC01LjU1ODM4LDAuMzAxMDcgLTcuNzkyOTYsMS45NjI4OSBsIC05NC43NDYxLDcwLjQzNzUgMTIuNTI5MywxNi44NTM1MiA5NC43NDYwOSwtNzAuNDM3NSBjIDQuNjU0MTIsLTMuNDU5NzggNS42MjIxNSwtMTAuMDM3NDggMi4xNjIxMSwtMTQuNjkxNDEgLTEuNjYxMzYsLTIuMjM1NTMgLTQuMTQyODcsLTMuNzE5MzcgLTYuODk4NDQsLTQuMTI1IHogTSAxODYuMzEwNTUsNzAuODY3MTg3IGMgLTUuNzk4OTksMCAtMTAuNSw0LjcwMTAxIC0xMC41LDEwLjUgdiAyOC45OTQxNDMgYyAwLDUuNzk4OTkgNC43MDEwMSwxMC41IDEwLjUsMTAuNSA1Ljc5ODk5LDAgMTAuNSwtNC43MDEwMSAxMC41LC0xMC41IFYgODEuMzY3MTg3IGMgMCwtNS43OTg5OSAtNC43MDEwMSwtMTAuNSAtMTAuNSwtMTAuNSB6IG0gMS4yZS00LDEwLjUwMDgyNyB2IDI4Ljk5NDAxNiIgc3R5bGU9ImNvbG9yOiMwMDAwMDA7b3BhY2l0eTowLjk5O2ZpbGw6Izc2OWVmNTtmaWxsLW9wYWNpdHk6MTtzdHJva2Utd2lkdGg6MjE7c3Ryb2tlLWxpbmVjYXA6cm91bmQ7c3Ryb2tlLWxpbmVqb2luOnJvdW5kOy1pbmtzY2FwZS1zdHJva2U6bm9uZSIgaWQ9InBhdGgxODQwLTMiLz4mI3hhOyAgICA8cGF0aCBkPSJtIDE4Ni4zNDU3LDE3MC42ODE2NCBjIC0xMi4wNDU3LDAgLTIxLjk2MDkzLDkuOTE1MjQgLTIxLjk2MDkzLDIxLjk2MDk0IDAsMTIuMDQ1NyA5LjkxNTIzLDIxLjk2MDk0IDIxLjk2MDkzLDIxLjk2MDk0IDEyLjA0NTcsMCAyMS45NjA5NCwtOS45MTUyNCAyMS45NjA5NCwtMjEuOTYwOTQgMCwtMTIuMDQ1NyAtOS45MTUyNCwtMjEuOTYwOTQgLTIxLjk2MDk0LC0yMS45NjA5NCB6IG0gMCwxNCBjIDQuNDc5NTUsMCA3Ljk2MDk0LDMuNDgxMzkgNy45NjA5NCw3Ljk2MDk0IDAsNC40Nzk1NSAtMy40ODEzOSw3Ljk2MDk0IC03Ljk2MDk0LDcuOTYwOTQgLTQuNDc5NTQsMCAtNy45NjA5MywtMy40ODEzOSAtNy45NjA5MywtNy45NjA5NCAwLC00LjQ3OTU1IDMuNDgxMzksLTcuOTYwOTQgNy45NjA5MywtNy45NjA5NCB6IE0gMjg2LjE2MTM3LDc2Ljc5MTAwOCBBIDExLjA4MjA4OSwxMS4wODIwODkgMCAwIDEgMjc1LjA3OTI4LDg3Ljg3MzA5NyAxMS4wODIwODksMTEuMDgyMDg5IDAgMCAxIDI2My45OTcyLDc2Ljc5MTAwOCAxMS4wODIwODksMTEuMDgyMDg5IDAgMCAxIDI3NS4wNzkyOCw2NS43MDg5MTkgMTEuMDgyMDg5LDExLjA4MjA4OSAwIDAgMSAyODYuMTYxMzcsNzYuNzkxMDA4IFogbSAwLC0zMy4xNDU0MzUgYSAxMS4wODIwODksMTEuMDgyMDg5IDAgMCAxIC0xMS4wODIwOSwxMS4wODIwODkgMTEuMDgyMDg5LDExLjA4MjA4OSAwIDAgMSAtMTEuMDgyMDgsLTExLjA4MjA4OSAxMS4wODIwODksMTEuMDgyMDg5IDAgMCAxIDExLjA4MjA4LC0xMS4wODIwOSAxMS4wODIwODksMTEuMDgyMDg5IDAgMCAxIDExLjA4MjA5LDExLjA4MjA5IHogbSAwLC05Mi40NjgyMjQgYSAxMS4wODIwODksMTEuMDgyMDg5IDAgMCAxIC0xMS4wODIwOSwxMS4wODIwOSAxMS4wODIwODksMTEuMDgyMDg5IDAgMCAxIC0xMS4wODIwOCwtMTEuMDgyMDkgMTEuMDgyMDg5LDExLjA4MjA4OSAwIDAgMSAxMS4wODIwOCwtMTEuMDgyMDg5IDExLjA4MjA4OSwxMS4wODIwODkgMCAwIDEgMTEuMDgyMDksMTEuMDgyMDg5IHogbSAtNDQuMjEzNjIsMzIuNTU3NzE2IGEgMTEuMDgyMDg5LDExLjA4MjA4OSAwIDAgMSAtMTEuMDgyMDksMTEuMDgyMDg5OSAxMS4wODIwODksMTEuMDgyMDg5IDAgMCAxIC0xMS4wODIwOSwtMTEuMDgyMDg5OSAxMS4wODIwODksMTEuMDgyMDg5IDAgMCAxIDExLjA4MjA5LC0xMS4wODIwODkgMTEuMDgyMDg5LDExLjA4MjA4OSAwIDAgMSAxMS4wODIwOSwxMS4wODIwODkgeiBtIDAsOTIuNTM1NDQzIGEgMTEuMDgyMDg5LDExLjA4MjA4OSAwIDAgMSAtMTEuMDgyMDksMTEuMDgyMDg5IDExLjA4MjA4OSwxMS4wODIwODkgMCAwIDEgLTExLjA4MjA5LC0xMS4wODIwODkgMTEuMDgyMDg5LDExLjA4MjA4OSAwIDAgMSAxMS4wODIwOSwtMTEuMDgyMDkgMTEuMDgyMDg5LDExLjA4MjA4OSAwIDAgMSAxMS4wODIwOSwxMS4wODIwOSB6IG0gMCwzMi44ODIzMTIgYSAxMS4wODIwODksMTEuMDgyMDg5IDAgMCAxIC0xMS4wODIwOSwxMS4wODIwOSAxMS4wODIwODksMTEuMDgyMDg5IDAgMCAxIC0xMS4wODIwOSwtMTEuMDgyMDkgMTEuMDgyMDg5LDExLjA4MjA4OSAwIDAgMSAxMS4wODIwOSwtMTEuMDgyMDkzIDExLjA4MjA4OSwxMS4wODIwODkgMCAwIDEgMTEuMDgyMDksMTEuMDgyMDkzIHogbSAzMy4xMzIzMywtMTM2LjU4ODM2NyBhIDEwLjUsMTAuNSAwIDAgMCAtMTAuNSwxMC41IHYgMjguOTk0MTQxIGEgMTAuNSwxMC41IDAgMCAwIDEwLjUsMTAuNSAxMC41LDEwLjUgMCAwIDAgMTAuNSwtMTAuNSB2IC0yOC45OTQxNDEgYSAxMC41LDEwLjUgMCAwIDAgLTEwLjUsLTEwLjUgeiBtIC04ZS00LDEwLjUwMDc1OSBWIDEyLjA1OTIyOSBNIDIzMC44NjUyMyw1LjI0MDIzNDQgYSAxMC41LDEwLjUgMCAwIDAgLTEwLjUsMTAuNDk5OTk5NiB2IDI4Ljk5NDE0MSBhIDEwLjUsMTAuNSAwIDAgMCAxMC41LDEwLjUgMTAuNSwxMC41IDAgMCAwIDEwLjUsLTEwLjUgViAxNS43NDAyMzQgYSAxMC41LDEwLjUgMCAwIDAgLTEwLjUsLTEwLjQ5OTk5OTYgeiBtIDQuMmUtNCwxMC40OTk0MzA2IHYgMjguOTk0MDE3IiBzdHlsZT0iY29sb3I6IzAwMDAwMDtvcGFjaXR5OjAuOTk7ZmlsbDojNTk4NmYyO2ZpbGwtb3BhY2l0eToxO3N0cm9rZS1saW5lY2FwOnJvdW5kO3N0cm9rZS1saW5lam9pbjpyb3VuZDstaW5rc2NhcGUtc3Ryb2tlOm5vbmUiIGlkPSJwYXRoMTg0MC04Ii8+JiN4YTsgIDwvZz4mI3hhOzwvc3ZnPg==;" vertex="1" parent="1">
                    <mxGeometry x="401.5" y="316" width="37" height="42" as="geometry"/>
                </mxCell>
                <mxCell id="30" value="Artifact&#10;Registry" style="sketch=0;html=1;verticalAlign=top;labelPosition=center;verticalLabelPosition=bottom;align=center;spacingTop=-6;fontSize=11;fontStyle=1;fontColor=#999999;shape=image;aspect=fixed;imageAspect=0;image=data:image/svg+xml,PHN2ZyB4bWxucz0iaHR0cDovL3d3dy53My5vcmcvMjAwMC9zdmciIGlkPSJzdmc4MjciIHZlcnNpb249IjEuMSIgdmlld0JveD0iMCAwIDIwNS41MTIyOCAxODAuNTE4MjUiIGhlaWdodD0iMTgwLjUxODI1bW0iIHdpZHRoPSIyMDUuNTEyMjhtbSI+JiN4YTsgICYjeGE7ICA8ZGVmcyBpZD0iZGVmczgyNCIvPiYjeGE7ICA8ZyB0cmFuc2Zvcm09InRyYW5zbGF0ZSgtNC42MDIwNzI4LC01Ni43NjcxMjYpIiBpZD0ibGF5ZXIxIj4mI3hhOyAgICA8cGF0aCBkPSJtIDE0Mi4zMDMzMiwyMDIuNTM2NzUgMjYuNjMwNzgsLTE0Ljc0MDkzIHYgLTI5LjExOTQ4IGwgLTI2LjYzMDc4LDE0Ljg2ODYzIHogbSAtNC44MzQ4OSwwIC0yNi42MzA3OCwtMTQuNzQwOTMgdiAtMjkuMTE5NDggbCAyNi42MzA3OCwxNC44Njg2MyB6IG0gLTI3LjM3NTc4LC01My4zNDI2NCAyNi42MzA3NywtMTQuNzQwOTMgViAxMDUuMzMzNyBsIC0yNi42MzA3NywxNC44Njg2MyB6IG0gLTQuODM0OSwwIC0yNi42MzA3NzcsLTE0Ljc0MDkzIFYgMTA1LjMzMzcgbCAyNi42MzA3NzcsMTQuODY4NjMgeiBtIC0yNy4zNzU3ODgsNTMuMzQyNjQgMjYuNjMwNzc4LC0xNC43NDA5MyB2IC0yOS4xMTk0OCBsIC0yNi42MzA3NzgsMTQuODY4NjMgeiBtIC00LjgzNDg5MywwIC0yNi42MzA3NzksLTE0Ljc0MDkzIHYgLTI5LjExOTQ4IGwgMjYuNjMwNzc5LDE0Ljg2ODYzIHogTSAyMTAuMTE0MzYsMTg1LjQ1NzQzIFYgMTA4LjU1NzM1IEwgMTg5LjY4MTczLDk2LjcxMDk4MSBWIDE5Ny4zMjgwMiBaIG0gLTIwNS41MTIyODcyLDAgViAxMDguNTU3MzUgTCAyNS4wMzQ2OTYsOTYuNzEwOTgxIFYgMTk3LjMyODAyIFoiIHN0eWxlPSJvcGFjaXR5OjE7ZmlsbDojMzM2N2Q2O2ZpbGwtb3BhY2l0eToxO3N0cm9rZTpub25lO3N0cm9rZS13aWR0aDowLjI2NDU4M3B4O3N0cm9rZS1saW5lY2FwOmJ1dHQ7c3Ryb2tlLWxpbmVqb2luOm1pdGVyO3N0cm9rZS1vcGFjaXR5OjEiIGlkPSJwYXRoOTY3LTAtNiIvPiYjeGE7ICAgIDxwYXRoIGQ9Im0gMTM5Ljc5MjI1LDE2OC4yODM3OSAtMjYuMDI5NjQsLTE0LjUxMjkzIDI2LjAyOTY0LC0xNC40MTkzIDI2LjIxNjg5LDE0LjQxOTMgeiBNIDEwNy41ODE1NywxMTQuOTQxMTUgODEuNTUxOTM0LDEwMC40MjgyMiAxMDcuNTgxNTcsODYuMDA4OTE4IDEzMy43OTg0NiwxMDAuNDI4MjIgWiBtIC0zMi4yMTA2ODUsNTMuMzQyNjQgLTI2LjAyOTYzNCwtMTQuNTEyOTMgMjYuMDI5NjM0LC0xNC40MTkzIDI2LjIxNjg5NSwxNC40MTkzIHogbSA4Ni43OTQ3MDUsNjkuMDAxNTkgNDcuOTQ4NzcsLTI3Ljc4NzQ2IHYgLTI0LjA0MDQ5IGwgLTQ3Ljk0ODc3LDI3Ljg1ODIyIHogTSAyMTAuMTE0MzYsODQuNTUyNTU3IDE2Mi4xNjU1OSw1Ni43NjcxMjYgdiAyMy45NjU5MjEgbCA0Ny45NDg3NywyNy44MjQzMDMgeiBNIDUyLjU1MDgzNSwyMzcuMjg1MzggNC42MDIwNzI4LDIwOS40OTc5MiBWIDE4NS40NTc0MyBMIDUyLjU1MDgzNSwyMTMuMzE1NjUgWiBNIDQuNjAyMDcyOCw4NC41NTI1NTcgNTIuNTUwODM1LDU2Ljc2NzEyNiBWIDgwLjczMzA0NyBMIDQuNjAyMDcyOCwxMDguNTU3MzUgWiIgc3R5bGU9Im9wYWNpdHk6MTtmaWxsOiM1Yzg1ZGU7ZmlsbC1vcGFjaXR5OjE7c3Ryb2tlOm5vbmU7c3Ryb2tlLXdpZHRoOjAuMjY0NTgzcHg7c3Ryb2tlLWxpbmVjYXA6YnV0dDtzdHJva2UtbGluZWpvaW46bWl0ZXI7c3Ryb2tlLW9wYWNpdHk6MSIgaWQ9InBhdGg5NjktOCIvPiYjeGE7ICA8L2c+JiN4YTs8L3N2Zz4=;" vertex="1" parent="1">
                    <mxGeometry x="400" y="400" width="42" height="37" as="geometry"/>
                </mxCell>
                <mxCell id="31" value="Cloud&#10;NAT" style="sketch=0;html=1;verticalAlign=top;labelPosition=center;verticalLabelPosition=bottom;align=center;spacingTop=-6;fontSize=11;fontStyle=1;fontColor=#999999;shape=image;aspect=fixed;imageAspect=0;image=data:image/svg+xml,PHN2ZyB4bWxuczppbmtzY2FwZT0iaHR0cDovL3d3dy5pbmtzY2FwZS5vcmcvbmFtZXNwYWNlcy9pbmtzY2FwZSIgeG1sbnM6c29kaXBvZGk9Imh0dHA6Ly9zb2RpcG9kaS5zb3VyY2Vmb3JnZS5uZXQvRFREL3NvZGlwb2RpLTAuZHRkIiB4bWxucz0iaHR0cDovL3d3dy53My5vcmcvMjAwMC9zdmciIHhtbG5zOnN2Zz0iaHR0cDovL3d3dy53My5vcmcvMjAwMC9zdmciIHdpZHRoPSI5OS45OTczMDIyMDQ4OTI5NiIgaGVpZ2h0PSI5Ny44ODA4NTM5MDQyOTYzMyIgdmlld0JveD0iLTAuMDQ1Nzc2MzY3MTg3NSAxLjA4Nzc4ODU4MTg0ODE0NDUgOTkuOTk3Mjk5MTk0MzM1OTQgOTcuODgwODQ0MTE2MjEwOTQiIHZlcnNpb249IjEuMSIgaWQ9InN2ZzUiIGlua3NjYXBlOnZlcnNpb249IjEuMSAoYzY4ZTIyYzM4NywgMjAyMS0wNS0yMykiIHNvZGlwb2RpOmRvY25hbWU9ImNsb3VkX25hdC5zdmciPiYjeGE7ICA8c29kaXBvZGk6bmFtZWR2aWV3IGlkPSJuYW1lZHZpZXc3IiBwYWdlY29sb3I9IiNmZmZmZmYiIGJvcmRlcmNvbG9yPSIjNjY2NjY2IiBib3JkZXJvcGFjaXR5PSIxLjAiIGlua3NjYXBlOnBhZ2VzaGFkb3c9IjIiIGlua3NjYXBlOnBhZ2VvcGFjaXR5PSIwLjAiIGlua3NjYXBlOnBhZ2VjaGVja2VyYm9hcmQ9IjAiIGlua3NjYXBlOmRvY3VtZW50LXVuaXRzPSJtbSIgc2hvd2dyaWQ9ImZhbHNlIiBpbmtzY2FwZTp6b29tPSIwLjU3OTMzNzQ0IiBpbmtzY2FwZTpjeD0iLTQyLjI4OTY4OSIgaW5rc2NhcGU6Y3k9IjI1NC42MDExOSIgaW5rc2NhcGU6d2luZG93LXdpZHRoPSIxOTIwIiBpbmtzY2FwZTp3aW5kb3ctaGVpZ2h0PSIxMDE3IiBpbmtzY2FwZTp3aW5kb3cteD0iLTgiIGlua3NjYXBlOndpbmRvdy15PSItOCIgaW5rc2NhcGU6d2luZG93LW1heGltaXplZD0iMSIgaW5rc2NhcGU6Y3VycmVudC1sYXllcj0ibGF5ZXIxIiBmaXQtbWFyZ2luLXRvcD0iMCIgZml0LW1hcmdpbi1sZWZ0PSIwIiBmaXQtbWFyZ2luLXJpZ2h0PSIwIiBmaXQtbWFyZ2luLWJvdHRvbT0iMCIvPiYjeGE7ICA8ZGVmcyBpZD0iZGVmczIiLz4mI3hhOyAgPGcgaW5rc2NhcGU6bGFiZWw9IkxheWVyIDEiIGlua3NjYXBlOmdyb3VwbW9kZT0ibGF5ZXIiIGlkPSJsYXllcjEiIHRyYW5zZm9ybT0idHJhbnNsYXRlKDI1OC42MTk3NSwxNi42Njc3MTUpIj4mI3hhOyAgICA8cGF0aCBpZD0icGF0aDE3MzYyIiBzdHlsZT0ib3BhY2l0eToxO2ZpbGw6IzQyODVmNDtmaWxsLW9wYWNpdHk6MTtzdHJva2U6bm9uZTtzdHJva2Utd2lkdGg6MC45OTk5OTlweDtzdHJva2UtbGluZWNhcDpidXR0O3N0cm9rZS1saW5lam9pbjptaXRlcjtzdHJva2Utb3BhY2l0eToxIiBkPSJNIDE0MS40MTc5Nyw0LjExMTMyODEgMTI0LjQwMjM0LDI0LjM3NSBjIDU3Ljg5NTM3LDQ4LjYxNjQyNiA4My40MTQwNyw5Ni4wNjQ2NyA4My40MTQwNywxNjMuOTQzMzYgMCw3Mi4zMTIyOCAtMzYuMTA3MzEsMTI0LjgyOTc3IC04Mi4wMTk1MywxNjYuMDQ4ODMgbCAxNy42Nzk2OCwxOS42ODc1IGMgNDkuMjAyOTksLTQ0LjE3MzQyIDkwLjc5Njg4LC0xMDQuNDk4MzcgOTAuNzk2ODgsLTE4NS43MzYzMyAwLC03NC44ODE1MiAtMzEuMTU5NDEsLTEzMi4zOTkwMjIgLTkyLjg1NTQ3LC0xODQuMjA3MDMxOSB6IE0gOTYuNTU2NjQxLDc1Ljg4NDc2NiBWIDEwMi4zNDE4IEggMTY2LjQ4MzA1IEMgMTYyLjM5Mjc0LDk0LjU1NDQyIDE1OC40NTE0Myw4Ni44NDE1NDIgMTQ4LjAyMjMzLDc1Ljg4NDc2NiBaIE0gMzE3Ljc3OTMsMjAyLjMwNjY0IHYgMzIuMjkyOTcgbCA1OS45OTAyMywtNDUuNTE3NTggLTU5Ljk5MDIzLC00NS41MTc1OCB2IDMyLjI4NTE2IGggLTY0LjQ3NDYxIHYgMjYuNDU3MDMgeiBNIDUwLjA1ODU5NCwxNzUuODQ5NjEgdiAyNi40NTcwMyBIIDE4Ny4yODEyNSBjIDEuMTU3NDUsLTguMDQ3MzcgMS4yODIzMSwtMTYuNzgzMTUgMCwtMjYuNDU3MDMgeiBtIDQ3LjAzNzEwOSwxMDAuMDQ2ODcgdiAyNi40NTcwNCBoIDUwLjY4MjY3NyBjIDguMDE2NTcsLTguMDE0NjYgMTQuNDYxNjksLTE2LjgxNTA0IDE5LjIyMzU3LC0yNi40NTcwNCB6IiB0cmFuc2Zvcm09Im1hdHJpeCgwLjI2NDU4MzMzLDAsMCwwLjI2NDU4MzMzLC0yNTguNjE5NzUsLTE2LjY2NzcxNSkiIHNvZGlwb2RpOm5vZGV0eXBlcz0iY2NzY2NzY2NjY2NjY2NjY2NjY2NjY2NjY2NjY2NjIi8+JiN4YTsgICAgPHBhdGggaWQ9InBhdGgxNjI3MS03IiBzdHlsZT0iY29sb3I6IzAwMDAwMDtvcGFjaXR5OjE7ZmlsbDojNjY5ZGY2O3N0cm9rZS1saW5lam9pbjpyb3VuZDstaW5rc2NhcGUtc3Ryb2tlOm5vbmU7ZmlsbC1vcGFjaXR5OjEiIGQ9Im0gLTIzNy45NTQwOCw1MS45MDU2ODYgYyAtNC4zNDYzLDEwZS03IC03LjkyMzgyLDMuNTc3NTIxIC03LjkyMzgyLDcuOTIzODI4IDAsNC4zNDYzMDcgMy41Nzc1Miw3LjkyMzgyOCA3LjkyMzgyLDcuOTIzODI4IDQuMzQ2MzEsMCA3LjkyMzgzLC0zLjU3NzUyMSA3LjkyMzgzLC03LjkyMzgyOCAwLC00LjM0NjMwNyAtMy41Nzc1MiwtNy45MjM4MjcgLTcuOTIzODMsLTcuOTIzODI4IHogbSAwLDUgYyAxLjY0NDExLDAgMi45MjM4MywxLjI3OTcxOCAyLjkyMzgzLDIuOTIzODI4IDAsMS42NDQxMSAtMS4yNzk3MiwyLjkyMzgyOCAtMi45MjM4MywyLjkyMzgyOCAtMS42NDQxMSwwIC0yLjkyMzgyLC0xLjI3OTcxOCAtMi45MjM4MiwtMi45MjM4MjggMCwtMS42NDQxMSAxLjI3OTcxLC0yLjkyMzgyOCAyLjkyMzgyLC0yLjkyMzgyOCB6IG0gLTEyLjc4NzYxLC0zMS40ODg1OTMgYyAtNC4zNDYzLDEwZS03IC03LjkyMzgyLDMuNTc3NTIxIC03LjkyMzgyLDcuOTIzODI4IDAsNC4zNDYzMDcgMy41Nzc1Miw3LjkyMzgyOCA3LjkyMzgyLDcuOTIzODI4IDQuMzQ2MzEsMCA3LjkyMzgzLC0zLjU3NzUyMSA3LjkyMzgzLC03LjkyMzgyOCAwLC00LjM0NjMwNyAtMy41Nzc1MiwtNy45MjM4MjcgLTcuOTIzODMsLTcuOTIzODI4IHogbSAwLDUgYyAxLjY0NDExLDAgMi45MjM4MywxLjI3OTcxOCAyLjkyMzgzLDIuOTIzODI4IDAsMS42NDQxMSAtMS4yNzk3MiwyLjkyMzgyOCAtMi45MjM4MywyLjkyMzgyOCAtMS42NDQxMSwwIC0yLjkyMzgyLC0xLjI3OTcxOCAtMi45MjM4MiwtMi45MjM4MjggMCwtMS42NDQxMSAxLjI3OTcxLC0yLjkyMzgyOCAyLjkyMzgyLC0yLjkyMzgyOCB6IG0gMTIuNjE2NTIsLTMxLjQzMTQ5MjkgYyAtNC4zNDYzLDZlLTcgLTcuOTIzODIsMy41Nzc1MjA4IC03LjkyMzgyLDcuOTIzODI4MSAwLDQuMzQ2MzA2OCAzLjU3NzUyLDcuOTIzODI3OCA3LjkyMzgyLDcuOTIzODI3OCA0LjM0NjMxLDAgNy45MjM4MywtMy41Nzc1MjEgNy45MjM4MywtNy45MjM4Mjc4IDAsLTQuMzQ2MzA3MyAtMy41Nzc1MiwtNy45MjM4Mjc1IC03LjkyMzgzLC03LjkyMzgyODEgeiBtIDAsNSBjIDEuNjQ0MTEsMmUtNyAyLjkyMzgzLDEuMjc5NzE4NCAyLjkyMzgzLDIuOTIzODI4MSAwLDEuNjQ0MTA5NiAtMS4yNzk3MiwyLjkyMzgyNzkgLTIuOTIzODMsMi45MjM4Mjc5IC0xLjY0NDExLDAgLTIuOTIzODIsLTEuMjc5NzE4MyAtMi45MjM4MiwtMi45MjM4Mjc5IDAsLTEuNjQ0MTA5NyAxLjI3OTcxLC0yLjkyMzgyNzkgMi45MjM4MiwtMi45MjM4MjgxIHoiLz4mI3hhOyAgPC9nPiYjeGE7PC9zdmc+;" vertex="1" parent="1">
                    <mxGeometry x="200" y="316" width="42" height="42" as="geometry"/>
                </mxCell>
            </root>
        </mxGraphModel>
    </diagram>
</mxfile>